<?xml version="1.0" standalone="no"?>
<!DOCTYPE svg PUBLIC "-//W3C//DTD SVG 20010904//EN"
 "http://www.w3.org/TR/2001/REC-SVG-20010904/DTD/svg10.dtd">
<svg version="1.0" xmlns="http://www.w3.org/2000/svg"
 width="600.000000pt" height="600.000000pt" viewBox="0 0 600.000000 600.000000"
 preserveAspectRatio="xMidYMid meet">

<g transform="translate(0.000000,600.000000) scale(0.100000,-0.100000)"
fill="#000000" stroke="none">
<path d="M3095 4326 c-166 -41 -318 -163 -396 -318 -47 -93 -69 -196 -70 -318
0 -276 93 -463 345 -694 l97 -89 -3 -316 c-3 -352 -5 -361 -79 -446 -80 -90
-220 -112 -340 -53 -115 57 -232 198 -285 344 -26 71 -54 214 -54 276 0 51
-23 94 -60 113 -37 19 -63 19 -100 0 -52 -27 -63 -65 -57 -185 12 -240 108
-454 277 -620 92 -91 166 -136 272 -167 182 -52 362 -6 496 129 101 101 150
216 159 373 8 156 -30 299 -111 418 -62 92 -63 98 -3 34 30 -31 68 -83 85
-115 l31 -57 1 518 c0 558 0 555 -52 591 -27 19 -77 21 -113 4 -53 -24 -60
-52 -65 -302 l-5 -228 -40 47 c-61 72 -113 154 -136 214 -91 244 -10 497 192
603 59 31 71 33 159 33 113 0 165 -20 246 -97 154 -145 133 -398 -41 -518 -77
-53 -96 -123 -49 -179 28 -33 74 -47 123 -36 45 10 140 85 185 146 170 229
150 533 -49 735 -82 83 -152 125 -255 153 -85 24 -224 27 -305 7z"/>
<path d="M4013 2820 c-45 -27 -54 -50 -63 -164 -23 -285 -193 -532 -457 -665
-67 -33 -191 -71 -235 -71 -18 0 -44 -15 -78 -45 -60 -54 -130 -91 -225 -120
l-70 -22 75 -19 c101 -25 302 -26 415 0 402 92 722 427 791 830 9 50 14 122
12 160 -4 64 -6 70 -41 102 -43 39 -77 43 -124 14z"/>
<path d="M3102 1413 c-32 -6 -38 -30 -14 -54 27 -24 103 -26 126 -3 46 45 -14
76 -112 57z"/>
</g>
</svg>
