<?xml version="1.0" standalone="no"?>
<!DOCTYPE svg PUBLIC "-//W3C//DTD SVG 20010904//EN"
 "http://www.w3.org/TR/2001/REC-SVG-20010904/DTD/svg10.dtd">
<svg version="1.0" xmlns="http://www.w3.org/2000/svg"
 width="600.000000pt" height="600.000000pt" viewBox="0 0 600.000000 600.000000"
 preserveAspectRatio="xMidYMid meet">

<g transform="translate(0.000000,600.000000) scale(0.100000,-0.100000)"
fill="#D1603D" stroke="none">
<path d="M3058 5655 c-4 -4 -33 -11 -65 -15 -106 -16 -167 -31 -220 -56 -28
-13 -54 -24 -57 -24 -14 0 -125 -55 -153 -76 -17 -13 -35 -24 -38 -24 -16 0
-106 -70 -165 -130 -99 -98 -186 -210 -231 -297 -22 -43 -44 -82 -48 -88 -4
-5 -14 -30 -21 -55 -7 -25 -17 -50 -21 -55 -5 -6 -11 -31 -15 -55 -4 -25 -11
-53 -16 -63 -32 -63 -49 -420 -27 -592 19 -150 21 -160 30 -169 5 -6 9 -21 9
-35 0 -38 30 -125 71 -203 5 -10 9 -24 9 -32 0 -7 8 -24 18 -37 10 -13 29 -49
42 -79 14 -30 27 -57 30 -60 3 -3 12 -18 19 -33 8 -15 30 -45 48 -67 18 -21
33 -41 33 -45 0 -15 201 -226 319 -335 68 -63 156 -146 195 -184 l71 -69 5
-586 c5 -460 3 -595 -7 -626 -7 -22 -13 -50 -13 -62 0 -12 -4 -25 -10 -28 -5
-3 -10 -14 -10 -23 0 -46 -83 -174 -157 -243 -145 -134 -342 -177 -555 -121
-98 26 -228 107 -350 220 -56 52 -198 232 -198 250 0 5 -6 15 -14 21 -13 11
-96 172 -117 226 -25 65 -49 144 -49 161 0 11 -5 25 -12 32 -17 17 -27 86 -48
337 -10 126 -31 188 -80 229 -66 55 -154 72 -214 41 -15 -8 -33 -15 -40 -15
-16 0 -69 -69 -83 -110 -19 -52 -17 -316 2 -370 8 -23 15 -57 15 -74 0 -28 19
-121 49 -241 5 -22 15 -41 20 -43 6 -2 11 -11 11 -20 0 -21 20 -76 43 -121 9
-19 17 -38 17 -44 0 -16 61 -140 90 -182 16 -22 45 -67 65 -100 128 -204 382
-440 582 -539 79 -39 165 -69 243 -86 30 -6 74 -15 98 -21 56 -12 230 -12 284
1 128 30 168 41 223 61 33 12 74 30 90 41 17 10 41 23 55 30 31 15 87 58 161
123 59 51 169 180 169 197 0 5 11 24 24 41 26 34 58 104 82 177 8 25 19 54 24
65 10 22 16 50 33 145 14 81 14 396 -1 470 -6 30 -14 72 -18 93 -3 20 -10 40
-15 43 -5 3 -9 18 -9 35 0 16 -4 29 -10 29 -5 0 -10 10 -10 23 0 24 -27 82
-68 147 -12 19 -22 43 -22 52 0 9 -6 21 -14 25 -7 4 -21 24 -31 43 -10 19 -31
50 -46 68 -16 18 -29 38 -29 45 0 8 -13 26 -30 42 -34 32 -40 65 -12 65 18 0
142 -121 142 -138 0 -6 4 -12 8 -14 22 -8 111 -141 154 -228 l27 -54 -4 199
c-2 110 -6 565 -10 1010 -7 917 -4 880 -82 957 -44 43 -44 43 -126 46 -143 6
-183 -26 -222 -173 -11 -40 -13 -137 -10 -440 2 -215 7 -398 10 -408 8 -20
-10 -47 -31 -47 -8 0 -18 10 -23 23 -5 12 -26 37 -48 55 -21 19 -61 63 -88 99
-28 36 -62 80 -77 98 -16 18 -28 36 -28 40 0 4 -13 27 -30 52 -16 24 -30 48
-30 53 0 4 -8 25 -19 47 -44 89 -71 177 -82 271 -21 165 -26 257 -18 280 5 13
9 39 9 57 0 19 7 60 16 92 9 32 19 72 23 88 4 17 13 40 19 52 7 12 12 31 12
41 0 11 9 31 20 44 11 12 38 50 60 84 45 69 179 201 231 229 109 57 146 74
159 75 9 0 21 5 27 11 17 17 84 24 235 23 104 0 145 -4 170 -16 18 -9 53 -24
78 -34 25 -10 60 -29 79 -41 19 -13 40 -23 47 -23 37 0 254 -248 254 -290 0
-6 4 -18 9 -28 5 -9 15 -37 21 -62 7 -25 17 -57 22 -71 16 -46 -2 -312 -23
-325 -5 -3 -9 -16 -9 -29 0 -13 -4 -27 -10 -30 -5 -3 -10 -13 -10 -21 0 -45
-160 -233 -250 -293 -87 -58 -133 -138 -127 -223 4 -63 60 -138 126 -171 38
-19 156 -24 166 -7 3 6 16 10 29 10 12 0 44 15 71 33 27 17 56 37 64 42 33 21
144 131 167 165 13 19 39 58 59 85 19 28 35 55 35 60 0 6 9 21 20 35 11 14 20
33 20 43 0 9 4 17 8 17 16 0 72 149 72 193 0 14 4 28 10 32 5 3 9 18 9 33 0
15 5 54 11 87 13 64 5 304 -10 334 -4 9 -13 41 -20 71 -7 30 -19 75 -27 100
-20 63 -90 205 -108 220 -8 7 -15 17 -15 22 0 30 -229 269 -311 324 -130 88
-341 165 -494 181 -90 9 -280 14 -287 8z"/>
<path d="M4775 2631 c-90 -42 -125 -116 -125 -269 -1 -53 -5 -117 -11 -142 -5
-25 -13 -72 -18 -105 -10 -72 -46 -208 -65 -250 -8 -16 -22 -48 -31 -70 -52
-120 -125 -251 -189 -333 -112 -148 -118 -154 -180 -212 -86 -80 -100 -92
-146 -125 -22 -16 -56 -42 -74 -57 -19 -16 -37 -28 -42 -28 -4 0 -15 -6 -23
-14 -21 -19 -272 -146 -289 -146 -7 0 -20 -4 -30 -10 -41 -23 -171 -55 -284
-70 -63 -8 -118 -32 -118 -51 0 -18 -170 -147 -243 -184 -42 -22 -88 -46 -102
-53 -44 -23 -159 -62 -183 -62 -19 0 -23 -5 -20 -23 2 -12 9 -21 16 -19 7 1
34 -5 59 -13 43 -15 163 -29 354 -42 48 -3 111 1 169 11 52 9 116 16 144 16
28 1 78 8 111 16 33 9 75 18 93 21 18 3 35 9 38 14 3 5 18 9 34 9 16 0 32 5
35 10 3 6 16 10 29 10 12 0 26 4 31 8 6 4 28 14 50 21 58 18 194 82 222 104 7
5 38 22 68 38 31 16 83 48 117 71 33 24 75 52 92 64 51 35 324 303 374 368 70
91 88 116 123 176 18 30 49 80 69 111 20 30 53 98 73 150 21 52 44 108 51 124
13 29 22 51 45 108 6 15 11 37 11 48 0 10 4 27 9 37 9 15 22 88 51 273 18 115
13 286 -10 348 -22 62 -61 107 -107 127 -45 20 -130 17 -178 -5z"/>
</g>
</svg>
